<svg viewBox="0 0 136 28">
  <g fill="currentColor" fill-rule="nonzero">
    <path d="M20.419 12.371a3.656 3.656 0 00-1.046 2.929l-.018-.018a4.344 4.344 0 01-4.694 4.694l.018.018A3.678 3.678 0 1018 23.312l.019.018a4.344 4.344 0 014.694-4.694l-.019-.018a3.671 3.671 0 10-2.272-6.247h-.003z"/>
    <path d="M13.042 17.636l-.019-.018A3.631 3.631 0 0017 13.644l.019.018a4.344 4.344 0 014.694-4.694l-.019-.018a3.678 3.678 0 10-3.318-3.318l-.018-.019a4.343 4.343 0 01-4.694 4.694l.018.019A3.631 3.631 0 009.705 14.3l-.018-.018a4.345 4.345 0 01-4.694 4.694l.018.018a3.678 3.678 0 103.318 3.318l.019.018a4.344 4.344 0 014.694-4.694z"/>
    <path d="M6.34 15.629A3.652 3.652 0 007.385 12.7l.019.018A4.344 4.344 0 0112.1 8.024l-.019-.018a3.677 3.677 0 10-3.318-3.318l-.018-.018a4.344 4.344 0 01-4.694 4.694l.018.018a3.671 3.671 0 102.273 6.247H6.34zM37.317 5.655h2.97v14.453h-2.97zM41.969 15.159a5.247 5.247 0 115.247 5.226 5.188 5.188 0 01-5.247-5.226zm7.524 0a2.278 2.278 0 10-2.277 2.341 2.221 2.221 0 002.277-2.341zM64.3 10.209v9.4c0 3.326-2.594 4.732-5.227 4.732a5.062 5.062 0 01-4.692-2.4l2.534-1.465a2.262 2.262 0 002.257 1.247 1.973 1.973 0 002.237-2.118V18.7a3.516 3.516 0 01-2.891 1.287 5.031 5.031 0 010-10.057 3.516 3.516 0 012.891 1.287v-1.01l2.891.002zm-2.89 4.751a2.4 2.4 0 10-2.395 2.3 2.24 2.24 0 002.395-2.3zM65.982 15.159a5.247 5.247 0 115.247 5.226 5.188 5.188 0 01-5.247-5.226zm7.524 0a2.278 2.278 0 10-2.277 2.341 2.221 2.221 0 002.277-2.341zM77.861 7.556a1.782 1.782 0 111.782 1.782 1.8 1.8 0 01-1.782-1.782zm.3 2.653h2.971v9.9h-2.975l.004-9.9zM93.956 15.159a4.971 4.971 0 01-4.732 5.226 3.715 3.715 0 01-2.949-1.208v4.891h-2.97V10.209h2.97v.93a3.717 3.717 0 012.949-1.207 4.97 4.97 0 014.732 5.227zm-2.97 0a2.356 2.356 0 10-2.355 2.415 2.26 2.26 0 002.355-2.415zM103.121 17.138c0 2.277-1.979 3.247-4.117 3.247a4.335 4.335 0 01-4.257-2.356l2.573-1.465A1.627 1.627 0 0099 17.732c.712 0 1.069-.218 1.069-.613 0-1.09-4.871-.515-4.871-3.94 0-2.159 1.822-3.247 3.881-3.247a4.329 4.329 0 013.86 2.118l-2.534 1.366a1.437 1.437 0 00-1.326-.871c-.515 0-.832.2-.832.554.004 1.129 4.874.376 4.874 4.039zM113.97 10.209v9.9H111v-.931a3.382 3.382 0 01-2.83 1.208c-2 0-3.7-1.425-3.7-4.1v-6.077h2.97v5.642a1.632 1.632 0 001.722 1.8c1.089 0 1.841-.633 1.841-2.039v-5.4l2.967-.003zM131 14.03v6.078h-2.97v-5.821c0-.99-.475-1.623-1.425-1.623-.99 0-1.545.693-1.545 1.861v5.583h-2.969v-5.821c0-.99-.475-1.623-1.426-1.623-.99 0-1.544.693-1.544 1.861v5.583h-2.97v-9.9h2.97v.91a3.039 3.039 0 012.653-1.187 2.945 2.945 0 012.593 1.306 3.262 3.262 0 012.871-1.306c2.273.001 3.762 1.624 3.762 4.099z"/>
    <circle cx="133.512" cy="7.944" r="2.204"/>
  </g>
</svg>
