<svg xmlns:xlink="http://www.w3.org/1999/xlink" viewBox="0 0 24 24">
  <defs>
    <path id="a" d="M0 0h3.668v12.08H0z"/>
    <path id="c" d="M0 0h3.668v12.08H0z"/>
    <path id="e" d="M0 0h10.126v16.19H0z"/>
  </defs>
  <g fill="none" fill-rule="evenodd">
    <g transform="translate(3.968 8.013)">
      <mask id="b" fill="#fff">
        <use xlink:href="#a"/>
      </mask>
      <path fill="#6D6D6D" d="M3.036 1.265H1.58a.317.317 0 000 .633h1.455v.633H1.58a.315.315 0 100 .63h1.455v.634H1.58a.316.316 0 100 .632h1.455v.633H1.58a.317.317 0 000 .633h1.455v.632H1.58a.316.316 0 000 .632h1.455v.632H1.58a.317.317 0 000 .633h1.455v3.226H.633V.633h2.403v.632zm.632 10.183V0H.316A.316.316 0 000 .317v11.447c0 .175.14.316.316.316h3.328l.024-.632z" mask="url(#b)"/>
    </g>
    <g transform="matrix(-1 0 0 1 20.158 8.013)">
      <mask id="d" fill="#fff">
        <use xlink:href="#c"/>
      </mask>
      <path fill="#6D6D6D" d="M3.036 1.265H1.58a.317.317 0 000 .633h1.455v.633H1.58a.315.315 0 100 .63h1.455v.634H1.58a.316.316 0 100 .632h1.455v.633H1.58a.317.317 0 000 .633h1.455v.632H1.58a.316.316 0 000 .632h1.455v.632H1.58a.317.317 0 000 .633h1.455v3.226H.633V.633h2.403v.632zm.632 10.183V0H.316A.316.316 0 000 .317v11.447c0 .175.14.316.316.316h3.328l.024-.632z" mask="url(#d)"/>
    </g>
    <g transform="translate(7 3.905)">
      <mask id="f" fill="#fff">
        <use xlink:href="#e"/>
      </mask>
      <path fill="currentColor" d="M.636 1.264H9.49V.632H.636v.632zm0 1.265H9.49v-.633H.636v.633zM9.49 14.293H7.34v-2.277a.316.316 0 00-.317-.316H3.102a.316.316 0 00-.316.316v2.277H.636V3.163H9.49v11.13zm-2.15 1.264h2.15v-.632H7.34v.632zm-1.961 0h1.328v-3.226H5.379v3.226zm-1.96 0h1.328v-3.226H3.419v3.226zm-2.783 0h2.15v-.632H.636v.632zM.003 6.008v9.549s-.007.425 0 .633h10.119c.008-.212 0-.633 0-.633V.316A.316.316 0 009.806 0H.319a.316.316 0 00-.316.316V6.008z" mask="url(#f)"/>
      <path fill="#currentColor" d="M1.9 10.373h6.324a.317.317 0 100-.632H1.9a.316.316 0 000 .632M1.9 7.844h6.324a.317.317 0 100-.633H1.9a.317.317 0 000 .633M1.9 5.314h6.324a.316.316 0 100-.632H1.9a.316.316 0 000 .632" mask="url(#f)"/>
    </g>
  </g>
</svg>
