<svg viewBox="0 0 24 24">
  <g fill="none" fill-rule="evenodd">
    <path fill="currentColor" d="M21.655 10.153l-9.352-6.848a.513.513 0 00-.606 0l-9.352 6.848a.513.513 0 10.606.827L12 4.354l9.05 6.626a.51.51 0 00.716-.11.513.513 0 00-.111-.717z"/>
    <path fill="#6D6D6D" d="M19.177 11.096a.513.513 0 00-.513.513v8.16h-4.1v-4.455A2.566 2.566 0 0012 12.751a2.566 2.566 0 00-2.563 2.563v4.454H5.336v-8.16a.513.513 0 00-1.026 0v8.673c0 .283.23.513.513.513H9.95a.512.512 0 00.513-.513v-4.967c0-.848.69-1.538 1.538-1.538.848 0 1.538.69 1.538 1.538v4.967a.512.512 0 00.513.513h5.126c.283 0 .513-.23.513-.513V11.61a.513.513 0 00-.513-.513z"/>
  </g>
</svg>
