<svg viewBox="0 0 24 24">
  <g fill="none" fill-rule="evenodd">
    <path fill="currentColor" d="M8.014 7.731c0 1.078.421 2.322 1.127 3.327.801 1.142 1.814 1.77 2.852 1.77 1.038 0 2.051-.628 2.852-1.77.706-1.005 1.127-2.249 1.127-3.327a3.984 3.984 0 00-3.979-3.979 3.984 3.984 0 00-3.98 3.98zm3.98-3.288a3.292 3.292 0 013.287 3.288c0 .927-.383 2.05-1.001 2.93-.659.939-1.492 1.477-2.287 1.477-.795 0-1.628-.538-2.286-1.477-.618-.88-1.002-2.003-1.002-2.93a3.292 3.292 0 013.288-3.288z"/>
    <path fill="currentColor" d="M14.962 12.057a.346.346 0 00-.392.067c-.773.771-1.664 1.178-2.577 1.178s-1.804-.407-2.577-1.177a.346.346 0 00-.392-.068 6.93 6.93 0 00-2.848 2.506 6.89 6.89 0 00-1.098 3.74v.006c0 .098.041.19.113.256a10.105 10.105 0 006.802 2.624c2.52 0 4.936-.932 6.802-2.624a.345.345 0 00.113-.256v-.005c0-1.333-.38-2.626-1.098-3.741a6.927 6.927 0 00-2.848-2.506zm-2.969 8.44c-2.297 0-4.5-.83-6.222-2.341a6.198 6.198 0 01.986-3.219 6.24 6.24 0 012.352-2.15c.864.79 1.856 1.207 2.884 1.207 1.027 0 2.02-.417 2.884-1.207a6.24 6.24 0 012.352 2.15c.62.962.96 2.072.986 3.219a9.414 9.414 0 01-6.222 2.342z"/>
    <path fill="#6D6D6D" d="M2.002 12.275a6.038 6.038 0 012.482-2.184.346.346 0 01.392.067c.66.658 1.419 1.005 2.196 1.005a2.75 2.75 0 001.238-.302.346.346 0 01.31.618 3.434 3.434 0 01-1.548.375c-.891 0-1.751-.356-2.501-1.033a5.348 5.348 0 00-1.988 1.828 5.314 5.314 0 00-.845 2.737 8.157 8.157 0 002.945 1.642.346.346 0 01-.204.66 8.85 8.85 0 01-3.32-1.892.345.345 0 01-.114-.256v-.005c0-1.161.331-2.289.957-3.26zM21.998 12.275a6.038 6.038 0 00-2.482-2.184.346.346 0 00-.392.067c-.66.658-1.419 1.005-2.196 1.005a2.75 2.75 0 01-1.238-.302.346.346 0 00-.31.618 3.434 3.434 0 001.548.375c.891 0 1.751-.356 2.501-1.033a5.348 5.348 0 011.988 1.828c.527.818.818 1.762.845 2.737a8.157 8.157 0 01-2.945 1.642.346.346 0 00.204.66 8.85 8.85 0 003.32-1.892.345.345 0 00.114-.256v-.005a6.006 6.006 0 00-.957-3.26z"/>
    <path fill="#6D6D6D" d="M7.044 10.735c.365 0 .73-.089 1.083-.265a.346.346 0 00-.307-.618 1.738 1.738 0 01-.776.192c-.67 0-1.375-.457-1.934-1.253-.527-.752-.855-1.71-.855-2.5a2.792 2.792 0 012.789-2.789c.725 0 1.413.278 1.935.782a.345.345 0 10.48-.498 3.462 3.462 0 00-2.415-.975 3.484 3.484 0 00-3.48 3.48c0 .939.367 2.022.98 2.897.7.998 1.588 1.547 2.5 1.547zM15.007 4.284a2.774 2.774 0 011.936-.782 2.792 2.792 0 012.788 2.789c0 .79-.328 1.748-.855 2.5-.559.796-1.264 1.253-1.933 1.253-.258 0-.52-.065-.776-.192a.346.346 0 10-.308.618c.354.176.718.265 1.084.265.911 0 1.799-.55 2.499-1.547.614-.875.98-1.958.98-2.897 0-1.919-1.56-3.48-3.48-3.48-.905 0-1.763.347-2.415.975a.345.345 0 10.48.498z"/>
  </g>
</svg>
